{"title":"Turbo 2013 BRRip 720p x264 AAC - PRiSTiNE [P2PDL]","uid":9111623,"size":585702072,"categoryP":"video","categoryS":"hd___movies","magnet":"?xt=urn:btih:2fe7ea402a2e11f4270a18b8f425a3ab426f5cd8&amp;dn=Turbo+2013+BRRip+720p+x264+AAC+-+PRiSTiNE+%5BP2PDL%5D&amp;tr=udp%3A%2F%2Ftracker.openbittorrent.com%3A80&amp;tr=udp%3A%2F%2Fopen.demonii.com%3A1337&amp;tr=udp%3A%2F%2Ftracker.coppersurfer.tk%3A6969&amp;tr=udp%3A%2F%2Fexodus.desync.com%3A6969","seeders":1,"leechers":1,"uploader":"ValidusVyto","files":-1,"time":1382957392,"description":"_______ Visit us at our Semi Public Bittorrent Community ________\n  &lt;a href=&quot;\nhttp://p2pdl.com&quot; rel=&quot;nofollow&quot; target=&quot;_NEW&quot;&gt;\nhttp://p2pdl.com&lt;/a&gt;  _____________________________ &lt;a href=&quot; http://p2pdl.com&quot; rel=&quot;nofollow&quot; target=&quot;_NEW&quot;&gt; http://p2pdl.com&lt;/a&gt;\n\n\n\nTurbo 2013 BRRip 720p x264 AAC - PRiSTiNE\n\n\nGenre: Animation | Adventure | Comedy\nPlot: A freak accident might just help an everyday garden snail achieve his biggest\ndream: winning the Indy 500. \nDirector: David Soren\nStars: Ryan Reynolds, Paul Giamatti, Maya Rudolph .\nRated: PG for some mild action and thematic elements.\n\n\nIMDb: &lt;a href=&quot;\nhttp://www.imdb.com/title/tt1860353/&quot; rel=&quot;nofollow&quot; target=&quot;_NEW&quot;&gt;\nhttp://www.imdb.com/title/tt1860353/&lt;/a&gt;\n\nTrailer:\n\n\nFormat                         : MPEG-4\nFile size                      : 551 MiB\nDuration                       : 1h 35mn\nOverall bit rate               : 806 Kbps\n\nVideo\nFormat                         : AVC\nBit rate                       : 723 Kbps\nWidth                          : 1 280 pixels\nHeight                         : 544 pixels\nDisplay aspect ratio           : 2.35:1\nFrame rate mode                : Constant\nFrame rate                     : 23.976 fps\nBit depth                      : 10 bits\nStream size                    : 494 MiB (90%)\nWriting library                : x264 core 138 r2358 \n\nAudio\nFormat                         : AAC\nBit rate mode                  : Variable\nBit rate                       : 79.8 Kbps\nChannel count                  : 2 channels\nChannel positions              : Front: L R\nSampling rate                  : 48.0 KHz\nStream size                    : 54.6 MiB (10%)\nLanguage                       : English\n\nSubtitle                       : Yes (English)\n\nSource                         : 720p.BluRay.DTS-ES.x264-PublicHD\n &lt;a href=&quot;\nhttp://someimage.com/TZdPziY&quot; rel=&quot;nofollow&quot; target=&quot;_NEW&quot;&gt;\nhttp://someimage.com/TZdPziY&lt;/a&gt; &lt;a href=&quot;\nhttp://someimage.com/VYAuvvs&quot; rel=&quot;nofollow&quot; target=&quot;_NEW&quot;&gt;\nhttp://someimage.com/VYAuvvs&lt;/a&gt; &lt;a href=&quot;\nhttp://someimage.com/wf8qCGq&quot; rel=&quot;nofollow&quot; target=&quot;_NEW&quot;&gt;\nhttp://someimage.com/wf8qCGq&lt;/a&gt; &lt;a href=&quot;\nhttp://someimage.com/w2fW8gV&quot; rel=&quot;nofollow&quot; target=&quot;_NEW&quot;&gt;\nhttp://someimage.com/w2fW8gV&lt;/a&gt; &lt;a href=&quot;\nhttp://someimage.com/1J6Lz9r&quot; rel=&quot;nofollow&quot; target=&quot;_NEW&quot;&gt;\nhttp://someimage.com/1J6Lz9r&lt;/a&gt; &lt;a href=&quot;\nhttp://someimage.com/ZifK6F5&quot; rel=&quot;nofollow&quot; target=&quot;_NEW&quot;&gt;\nhttp://someimage.com/ZifK6F5&lt;/a&gt; &lt;a href=&quot;\nhttp://someimage.com/s1nO6m5&quot; rel=&quot;nofollow&quot; target=&quot;_NEW&quot;&gt;\nhttp://someimage.com/s1nO6m5&lt;/a&gt; &lt;a href=&quot;\nhttp://someimage.com/zSlWLrJ&quot; rel=&quot;nofollow&quot; target=&quot;_NEW&quot;&gt;\nhttp://someimage.com/zSlWLrJ&lt;/a&gt;\n\n----------------------------------------------------------------------------------------------------\n\n\nEncoded using revolutionary 10bit encoding, which enables us to provide you more crispier \nand sharper images at small sizes, just make sure you follow our instructions without a fault.\nRecommend to you to use latest version of VLC player. Install K-Lite Codec Pack or shark007 codecs\nin case of any kind of problem in playback (For non-VLC Media Player users). Alternatively, install\nCore AVC codecs, the fastest decoder that there is coupled with Community Center Codec Pack and play\non Windows Media Player Classic. Check sample to be sure.\nEnjoy!\n\nEncoder Notes:Looking For Early Access To Anything You Can Provide DVDScr, R5, DVDR, BluRay, Direct\nAudio, Music Releases and Seedboxes. We require dedicated servers, so as to do more \nand fast releases of movies.\nIf You Got anything to offer please contact us at &quot;&lt;a class=&quot;__cf_email__&quot; href=&quot;/cdn-cgi/l/email-protection&quot; data-cfemail=&quot;45353722052d30362d6b262a28&quot;&gt;[email&amp;#160;protected]&lt;/a&gt;&lt;script cf-hash='f9e31' type=&quot;text/javascript&quot;&gt;\n/* &lt;![CDATA[ */!function(){try{var t=&quot;currentScript&quot;in document?document.currentScript:function(){for(var t=document.getElementsByTagName(&quot;script&quot;),e=t.length;e--;)if(t[e].getAttribute(&quot;cf-hash&quot;))return t[e]}();if(t&amp;&amp;t.previousSibling){var e,r,n,i,c=t.previousSibling,a=c.getAttribute(&quot;data-cfemail&quot;);if(a){for(e=&quot;&quot;,r=parseInt(a.substr(0,2),16),n=2;a.length-n;n+=2)i=parseInt(a.substr(n,2),16)^r,e+=String.fromCharCode(i);e=document.createTextNode(e),c.parentNode.replaceChild(e,c)}}}catch(u){}}();/* ]]&gt; */&lt;/script&gt;&quot;.\n\nFacebook Fan Page:  \nSearch P2PDL on FB and hit like!!!\n\nFor more of our team uploads visit @                                             &lt;a href=&quot; http://thepiratebay.se/user/vitamin_x&quot; rel=&quot;nofollow&quot; target=&quot;_NEW&quot;&gt; http://thepiratebay.se/user/vitamin_x&lt;/a&gt;","torrent":{"xt":"urn:btih:2fe7ea402a2e11f4270a18b8f425a3ab426f5cd8","amp;dn":"Turbo+2013+BRRip+720p+x264+AAC+-+PRiSTiNE+%5BP2PDL%5D","amp;tr":["udp%3A%2F%2Ftracker.openbittorrent.com%3A80","udp%3A%2F%2Fopen.demonii.com%3A1337","udp%3A%2F%2Ftracker.coppersurfer.tk%3A6969","udp%3A%2F%2Fexodus.desync.com%3A6969"],"infoHash":"2fe7ea402a2e11f4270a18b8f425a3ab426f5cd8","infoHashBuffer":{"type":"Buffer","data":[47,231,234,64,42,46,17,244,39,10,24,184,244,37,163,171,66,111,92,216]},"announce":[],"urlList":[]}}